<svg width="265" height="63" viewBox="0 0 265 63" fill="none" xmlns="http://www.w3.org/2000/svg">
<rect width="265" height="63" fill="#F94F00"/>
<path d="M206.714 45.233H206.51C205.733 45.233 205.181 45.3764 204.813 45.6632C204.466 45.95 204.282 46.3802 204.282 46.9948C204.282 47.3021 204.343 47.5479 204.486 47.7118C204.609 47.8962 204.793 47.9782 205.038 47.9782C205.467 47.9782 205.815 47.7528 206.101 47.3021C206.367 46.8309 206.571 46.1344 206.714 45.233ZM206.142 48.4903C205.856 48.8181 205.549 49.0434 205.222 49.2073C204.895 49.3712 204.527 49.4327 204.118 49.4327C203.484 49.4327 202.953 49.2278 202.544 48.8386C202.135 48.4493 201.951 47.9372 201.951 47.3226C201.951 46.1139 202.278 45.233 202.932 44.7004C203.587 44.1678 204.67 43.9015 206.162 43.9015C206.387 43.9015 206.551 43.9015 206.673 43.9015C206.796 43.9015 206.898 43.9014 207 43.9219C207.041 43.6556 207.082 43.4508 207.103 43.2869C207.123 43.123 207.123 43.0001 207.123 42.9181C207.123 42.6313 207.062 42.406 206.919 42.2626C206.776 42.1192 206.571 42.0577 206.305 42.0577C206.019 42.0577 205.794 42.1397 205.61 42.324C205.447 42.5084 205.324 42.7747 205.263 43.123H202.953C203.055 42.2831 203.362 41.6685 203.893 41.2792C204.425 40.89 205.202 40.7056 206.244 40.7056C207.328 40.7056 208.125 40.89 208.636 41.2383C209.147 41.607 209.392 42.1806 209.392 42.9591C209.392 43.164 209.372 43.3688 209.351 43.6146C209.31 43.8605 209.27 44.1063 209.208 44.3726L208.513 47.6094C208.452 47.8962 208.411 48.183 208.37 48.4698C208.329 48.7566 208.309 49.0229 208.268 49.3302H206.04L206.142 48.4903ZM198.333 48.5518C198.108 48.8795 197.842 49.1459 197.536 49.2893C197.229 49.4531 196.861 49.5146 196.411 49.5146C195.696 49.5146 195.164 49.3302 194.817 48.982C194.469 48.6337 194.285 48.0806 194.285 47.3431C194.285 47.0563 194.326 46.6875 194.388 46.2368C194.449 45.7862 194.531 45.2945 194.653 44.7619C194.776 44.1883 194.919 43.6966 195.062 43.2664C195.205 42.8362 195.348 42.4879 195.512 42.2216C195.798 41.7299 196.125 41.3612 196.493 41.1359C196.861 40.9105 197.311 40.7876 197.822 40.7876C198.251 40.7876 198.619 40.8695 198.926 41.0334C199.232 41.1973 199.519 41.4841 199.764 41.8733L200.766 37.2435H203.137L200.847 47.9782C200.806 48.142 200.786 48.3469 200.745 48.5722C200.704 48.7976 200.684 49.0434 200.643 49.3097H198.21L198.333 48.5518ZM198.497 42.3855C198.231 42.3855 198.026 42.4674 197.863 42.6108C197.699 42.7542 197.556 43.041 197.434 43.4303C197.229 44.1063 197.045 44.7619 196.922 45.4379C196.8 46.0934 196.739 46.6261 196.739 47.0358C196.739 47.3431 196.8 47.5684 196.943 47.7323C197.066 47.8962 197.27 47.9577 197.536 47.9577C197.761 47.9577 197.945 47.8757 198.108 47.7323C198.272 47.5889 198.435 47.3431 198.578 47.0358C198.66 46.8514 198.721 46.6056 198.803 46.2983C198.885 45.991 198.967 45.6223 199.048 45.1921C199.13 44.7619 199.192 44.3931 199.232 44.0858C199.273 43.7785 199.294 43.5327 199.294 43.3483C199.294 43.0206 199.212 42.7952 199.089 42.6313C198.946 42.4674 198.762 42.3855 198.497 42.3855ZM190.708 42.2011C190.442 42.2011 190.238 42.2831 190.074 42.4265C189.911 42.5699 189.768 42.8157 189.645 43.1435C189.604 43.2459 189.563 43.3893 189.502 43.6146C189.441 43.84 189.4 44.0653 189.338 44.3521C189.298 44.516 189.257 44.7414 189.195 45.0487C188.95 46.1754 188.827 46.8719 188.827 47.1177C188.827 47.4455 188.889 47.7118 189.032 47.8757C189.175 48.0396 189.379 48.142 189.666 48.142C189.931 48.142 190.136 48.0601 190.32 47.9167C190.504 47.7733 190.647 47.5275 190.769 47.1997C190.831 47.0153 190.912 46.749 190.994 46.3802C191.076 46.0115 191.178 45.6018 191.28 45.1511C191.362 44.7209 191.444 44.3521 191.485 44.0244C191.526 43.6966 191.546 43.4303 191.546 43.2254C191.546 42.8976 191.485 42.6518 191.342 42.4879C191.199 42.2831 190.994 42.2011 190.708 42.2011ZM186.538 46.7695C186.538 46.5032 186.558 46.1959 186.62 45.8476C186.661 45.4994 186.742 45.0896 186.845 44.6594C186.967 44.1268 187.09 43.6556 187.233 43.2459C187.376 42.8362 187.54 42.5084 187.683 42.2831C188.03 41.7504 188.439 41.3612 188.93 41.1154C189.42 40.8695 190.033 40.7466 190.79 40.7466C191.812 40.7466 192.589 40.9924 193.12 41.4636C193.652 41.9348 193.917 42.6518 193.917 43.5532C193.917 43.84 193.897 44.1473 193.856 44.4751C193.815 44.8233 193.754 45.1921 193.652 45.6018C193.529 46.1344 193.406 46.5851 193.263 46.9948C193.12 47.4045 192.957 47.7528 192.793 47.9986C192.466 48.5313 192.037 48.9205 191.567 49.1663C191.076 49.4122 190.463 49.5351 189.706 49.5351C188.684 49.5351 187.908 49.2893 187.376 48.8181C186.804 48.3674 186.538 47.6709 186.538 46.7695ZM180.937 49.3712L182.327 42.7952C182.388 42.4879 182.449 42.1601 182.511 41.8529C182.572 41.5456 182.613 41.2383 182.633 40.931H184.943L184.739 42.1601C185.025 41.7299 185.332 41.4022 185.7 41.1973C186.068 40.9924 186.477 40.89 186.967 40.89C187.069 40.89 187.131 40.89 187.192 40.89C187.233 40.89 187.294 40.89 187.315 40.9105L186.885 43.0001C186.865 43.0001 186.865 43.0001 186.845 43.0001C186.558 42.9591 186.374 42.9386 186.252 42.9386C185.7 42.9386 185.25 43.1025 184.964 43.4303C184.657 43.758 184.412 44.3112 184.248 45.0896L183.349 49.3712H180.937ZM178.381 45.233H178.177C177.4 45.233 176.848 45.3764 176.48 45.6632C176.133 45.95 175.949 46.3802 175.949 46.9948C175.949 47.3021 176.01 47.5479 176.153 47.7118C176.276 47.8962 176.46 47.9782 176.705 47.9782C177.135 47.9782 177.482 47.7528 177.768 47.3021C178.034 46.8309 178.238 46.1344 178.381 45.233ZM177.789 48.4903C177.502 48.8181 177.196 49.0434 176.869 49.2073C176.542 49.3712 176.174 49.4327 175.765 49.4327C175.131 49.4327 174.6 49.2278 174.191 48.8386C173.782 48.4493 173.598 47.9372 173.598 47.3226C173.598 46.1139 173.925 45.233 174.579 44.7004C175.233 44.1678 176.317 43.9015 177.809 43.9015C178.034 43.9015 178.197 43.9015 178.32 43.9015C178.443 43.9015 178.545 43.9014 178.647 43.9219C178.688 43.6556 178.729 43.4508 178.749 43.2869C178.77 43.123 178.77 43.0001 178.77 42.9181C178.77 42.6313 178.709 42.406 178.565 42.2626C178.422 42.1192 178.218 42.0577 177.952 42.0577C177.666 42.0577 177.441 42.1397 177.257 42.324C177.094 42.5084 176.971 42.7747 176.91 43.123H174.62C174.722 42.2831 175.029 41.6685 175.56 41.2792C176.092 40.89 176.869 40.7056 177.911 40.7056C178.995 40.7056 179.792 40.89 180.303 41.2383C180.814 41.607 181.059 42.1806 181.059 42.9591C181.059 43.164 181.039 43.3688 181.019 43.6146C180.978 43.8605 180.937 44.1063 180.875 44.3726L180.18 47.6094C180.119 47.8962 180.078 48.183 180.037 48.4698C179.996 48.7566 179.976 49.0229 179.935 49.3302H177.686L177.789 48.4903ZM164.358 49.3712L166.934 37.2845H170.327C171.676 37.2845 172.637 37.4893 173.23 37.8991C173.823 38.3088 174.109 38.9848 174.109 39.8862C174.109 40.8286 173.864 41.5865 173.394 42.1601C172.923 42.7338 172.249 43.082 171.349 43.1844C171.963 43.3074 172.412 43.5737 172.699 43.9629C172.985 44.3521 173.148 44.8848 173.148 45.5403C173.148 46.1959 173.026 46.8105 172.78 47.3636C172.535 47.9167 172.208 48.3264 171.779 48.6337C171.39 48.9 170.92 49.0844 170.348 49.2073C169.796 49.3097 168.876 49.3712 167.608 49.3712H164.358ZM167.281 47.4865H168.385C169.183 47.4865 169.755 47.3226 170.123 46.9743C170.491 46.6466 170.675 46.1139 170.675 45.3764C170.675 44.8848 170.532 44.5365 170.266 44.3317C170 44.1268 169.53 44.0244 168.876 44.0244H168.058L167.281 47.4865ZM168.426 42.1806H169.305C170.143 42.1806 170.736 42.0372 171.104 41.7299C171.472 41.4227 171.656 40.9515 171.656 40.2754C171.656 39.8452 171.513 39.5584 171.247 39.3741C170.981 39.1897 170.511 39.0873 169.878 39.0873H169.101L168.426 42.1806ZM157.449 49.3712L158.9 42.4265H157.571L157.898 40.9515H159.227L159.473 39.7018C159.656 38.8005 159.963 38.1449 160.413 37.7352C160.863 37.3255 161.476 37.1206 162.253 37.1206C162.498 37.1206 162.743 37.1206 162.989 37.1411C163.234 37.1616 163.479 37.1821 163.724 37.223L163.377 38.8414C163.254 38.8209 163.132 38.8005 163.05 38.78C162.968 38.7595 162.886 38.7595 162.825 38.7595C162.539 38.7595 162.314 38.8414 162.171 38.9848C162.007 39.1282 161.905 39.3741 161.823 39.7018L161.578 40.9515H162.948L162.641 42.4265H161.271L159.8 49.3712H157.449ZM154.239 42.2011C153.994 42.2011 153.769 42.2831 153.606 42.4265C153.442 42.5699 153.299 42.8157 153.197 43.1435C153.156 43.2459 153.115 43.3893 153.054 43.6146C152.992 43.84 152.951 44.0653 152.89 44.3521C152.849 44.516 152.808 44.7414 152.747 45.0487C152.502 46.1754 152.379 46.8719 152.379 47.1177C152.379 47.4455 152.44 47.7118 152.584 47.8757C152.727 48.0396 152.931 48.142 153.197 48.142C153.442 48.142 153.667 48.0601 153.83 47.9167C153.994 47.7733 154.158 47.5275 154.26 47.1997C154.321 47.0153 154.403 46.749 154.485 46.3802C154.566 46.0115 154.669 45.6018 154.75 45.1511C154.832 44.7209 154.893 44.3521 154.955 44.0244C154.996 43.6966 155.016 43.4303 155.016 43.2254C155.016 42.8976 154.955 42.6518 154.812 42.4879C154.71 42.2831 154.505 42.2011 154.239 42.2011ZM150.11 46.7695C150.11 46.5032 150.13 46.1959 150.192 45.8476C150.233 45.4994 150.314 45.0896 150.396 44.6594C150.519 44.1268 150.642 43.6556 150.785 43.2459C150.928 42.8362 151.071 42.5084 151.234 42.2831C151.561 41.7504 151.97 41.3612 152.461 41.1154C152.931 40.8695 153.544 40.7466 154.28 40.7466C155.282 40.7466 156.038 40.9924 156.57 41.4636C157.101 41.9348 157.347 42.6518 157.347 43.5532C157.347 43.84 157.326 44.1473 157.285 44.4751C157.244 44.8233 157.183 45.1921 157.081 45.6018C156.958 46.1344 156.835 46.5851 156.692 46.9948C156.549 47.4045 156.406 47.7528 156.243 47.9986C155.916 48.5313 155.507 48.9205 155.016 49.1663C154.546 49.4122 153.933 49.5351 153.197 49.5351C152.195 49.5351 151.418 49.2893 150.907 48.8181C150.376 48.3674 150.11 47.6709 150.11 46.7695ZM139.521 49.3712L142.138 37.2845H144.57L143.098 44.0449L145.776 40.931H148.393L145.245 44.6594L146.941 49.3507H144.448L142.976 44.5775L141.954 49.3507H139.521V49.3712ZM131.692 49.3712L133.184 42.4879C133.266 42.1397 133.327 41.8324 133.368 41.607C133.409 41.3612 133.45 41.1563 133.47 40.9515H135.78L135.637 41.9143C135.903 41.5046 136.209 41.2178 136.557 41.0334C136.904 40.849 137.334 40.7671 137.824 40.7671C138.458 40.7671 138.928 40.9105 139.255 41.2178C139.582 41.5046 139.746 41.9553 139.746 42.5289C139.746 42.7338 139.725 42.9386 139.705 43.123C139.685 43.3074 139.664 43.4917 139.623 43.6556L138.397 49.3917H135.964L137.211 43.6351C137.252 43.4712 137.272 43.3278 137.293 43.2459C137.313 43.164 137.313 43.082 137.313 43.041C137.313 42.8157 137.252 42.6518 137.15 42.5494C137.048 42.4469 136.884 42.3855 136.68 42.3855C136.373 42.3855 136.087 42.5494 135.841 42.8567C135.596 43.164 135.412 43.5942 135.31 44.1473L134.165 49.3917H131.692V49.3712ZM129.116 45.233H128.891C128.114 45.233 127.542 45.3764 127.174 45.6632C126.806 45.95 126.642 46.3802 126.642 46.9948C126.642 47.3021 126.704 47.5479 126.847 47.7118C126.97 47.8962 127.174 47.9782 127.399 47.9782C127.828 47.9782 128.196 47.7528 128.482 47.3021C128.748 46.8309 128.973 46.1344 129.116 45.233ZM128.523 48.4903C128.237 48.8181 127.93 49.0434 127.583 49.2073C127.256 49.3712 126.867 49.4327 126.479 49.4327C125.825 49.4327 125.293 49.2278 124.884 48.8386C124.476 48.4493 124.271 47.9372 124.271 47.3226C124.271 46.1139 124.598 45.233 125.252 44.7004C125.907 44.1678 127.01 43.9015 128.523 43.9015C128.748 43.9015 128.912 43.9015 129.034 43.9015C129.157 43.9015 129.259 43.9014 129.382 43.9219C129.443 43.6556 129.463 43.4508 129.484 43.2869C129.504 43.123 129.504 43.0001 129.504 42.9181C129.504 42.6313 129.443 42.406 129.3 42.2626C129.157 42.1192 128.952 42.0577 128.666 42.0577C128.38 42.0577 128.155 42.1397 127.971 42.324C127.787 42.5084 127.685 42.7747 127.624 43.123H125.273C125.375 42.2831 125.702 41.6685 126.234 41.2792C126.765 40.89 127.562 40.7056 128.625 40.7056C129.729 40.7056 130.526 40.89 131.038 41.2383C131.549 41.607 131.794 42.1806 131.794 42.9591C131.794 43.164 131.773 43.3688 131.753 43.6146C131.712 43.8605 131.671 44.1063 131.61 44.3726L130.915 47.6094C130.854 47.8962 130.813 48.183 130.772 48.4698C130.731 48.7566 130.69 49.0229 130.67 49.3302H128.421L128.523 48.4903ZM114.929 49.3712L117.546 37.2845H120.98C122.35 37.2845 123.331 37.4893 123.924 37.8991C124.516 38.3088 124.823 38.9848 124.823 39.8862C124.823 40.8286 124.578 41.5865 124.108 42.1601C123.637 42.7338 122.942 43.082 122.043 43.1844C122.656 43.3074 123.126 43.5737 123.413 43.9629C123.719 44.3521 123.862 44.8848 123.862 45.5403C123.862 46.1959 123.74 46.8105 123.494 47.3636C123.249 47.9167 122.902 48.3264 122.472 48.6337C122.084 48.9 121.614 49.0844 121.041 49.2073C120.469 49.3097 119.549 49.3712 118.261 49.3712H114.929ZM117.873 47.4865H118.977C119.774 47.4865 120.367 47.3226 120.735 46.9743C121.103 46.6466 121.287 46.1139 121.287 45.3764C121.287 44.8848 121.144 44.5365 120.878 44.3317C120.592 44.1268 120.142 44.0244 119.467 44.0244H118.629L117.873 47.4865ZM119.018 42.1806H119.897C120.735 42.1806 121.348 42.0372 121.736 41.7299C122.104 41.4227 122.288 40.9515 122.288 40.2754C122.288 39.8452 122.145 39.5584 121.879 39.3741C121.593 39.1897 121.144 39.0873 120.489 39.0873H119.713L119.018 42.1806Z" fill="white"/>
<path fill-rule="evenodd" clip-rule="evenodd" d="M180.507 30.8929H182.449L182.102 32.6342H180.16L180.507 30.8929ZM175.07 26.8366C174.743 27.3078 174.273 27.6356 173.843 27.6356H173.741C173.107 27.6356 172.78 26.9595 173.005 26.1401L173.394 24.7471L175.07 26.8776V26.8366ZM174.927 23.1901H175.029C175.663 23.1901 175.99 23.8662 175.785 24.6856L175.479 25.8123L173.782 23.8662C174.109 23.4564 174.538 23.1901 174.927 23.1901ZM171.84 19.81H187.11L185.393 17.536L186.845 16.3478L188.868 19.81H189.4L187.867 15.6718L189.788 14.7909L190.892 19.8304H205.14L204.915 20.8138H203.648L201.195 30.0734H199.13L201.583 20.8138H199.784L198.967 23.1696C198.088 23.1696 196.841 22.9648 196.003 23.1287C195.287 23.2721 195.144 23.6203 194.919 24.2144C194.449 25.4846 194.204 26.7547 193.877 28.0863C193.958 28.9467 194.429 29.1106 195.308 29.0901C195.226 28.2297 195.43 27.0415 196.452 26.5498C197.127 26.2221 198.313 26.2016 198.558 27.0005C198.905 28.1477 197.72 29.2745 196.882 29.3564C197.106 30.0529 197.618 30.1144 198.374 30.4217L196.227 31.5689C195.737 30.9748 195.369 30.3602 195.348 29.7251C194.572 30.0939 193.243 30.1349 192.425 29.7251C192.241 29.6432 192.057 29.4998 191.894 29.254C191.546 28.7623 191.424 28.1272 191.485 27.3693C191.567 26.6113 191.669 25.8533 191.914 25.1158C192.18 24.2349 192.487 23.5794 193.182 22.9648C194.265 21.9815 195.41 22.0634 197.127 22.1453L197.536 20.7728H191.464L189.011 30.0324H186.947L189.4 20.7728H187.724L186.783 23.9481L184.759 24.0096L184.616 23.2516C184.228 23.0877 183.574 23.0058 183.144 23.0877C182.572 23.1901 182.449 23.5384 182.286 24.0505C182.122 24.5627 182.081 25.1158 182.47 25.2592C183.104 25.505 184.207 25.3821 184.862 25.3412C185.72 25.3207 186.231 25.6484 186.19 26.4679C186.109 27.3078 185.843 28.0658 185.475 28.7623C185.25 29.2335 184.984 29.5817 184.616 29.7251C183.737 30.0939 182.143 29.971 181.202 29.971C180.691 29.971 180.201 29.9505 179.731 29.9095C179.526 29.889 179.342 29.8276 179.158 29.7047C178.995 29.6022 178.852 29.4383 178.729 29.2335C178.484 28.7828 178.525 28.5165 178.627 28.0453L178.811 27.2259L181.284 27.2668C181.019 27.8814 180.937 28.3321 181.1 28.5779C181.448 29.0901 182.695 28.8443 183.104 28.5779L183.594 26.98C183.696 26.6113 183.472 26.4474 183.144 26.3655C182.695 26.263 182.184 26.304 181.734 26.304C181.243 26.304 180.569 26.3859 180.139 26.0991C179.424 25.628 179.608 24.3988 179.874 23.5999C180.099 22.9238 180.385 22.5346 181.039 22.2478C182.429 21.6127 184.616 21.7766 185.066 22.596L185.495 20.6908H178.995L176.623 30.012H174.559L175.111 27.8404C174.538 28.4345 173.721 28.8033 172.903 28.8033H172.678C171.349 28.8033 170.491 27.7585 170.797 26.4884L171.329 24.2349C171.636 22.9648 172.964 21.92 174.293 21.92H174.518C175.376 21.92 176.051 22.3502 176.317 23.0058L176.91 20.6908H171.656L171.84 19.81ZM149.231 16.4707L151.296 16.4503C151.193 16.6961 151.091 17.2697 151.255 17.495C151.561 17.9048 152.645 17.8843 153.033 17.4336C153.197 17.2492 153.36 16.7371 153.422 16.4912L155.691 16.4707C155.486 17.4745 155.118 18.3145 154.178 18.5398C153.074 18.8061 150.948 18.7037 149.824 18.4989C148.7 18.294 149.047 17.3926 149.231 16.4707ZM154.628 29.254H156.57L156.222 31.0158H154.28L154.628 29.254ZM160.311 20.7933H158.532L157.387 25.3412C156.917 27.021 157.898 27.0825 158.88 26.1811L160.311 20.7933ZM147.473 19.81H166.811L166.586 20.7933H162.539L161.987 23.0058C163.827 21.92 165.135 22.2068 165.564 23.0467C165.871 23.6203 165.646 24.153 165.503 24.7266L164.338 29.0696H162.13L163.193 24.8905C163.663 23.2311 162.702 23.1492 161.721 24.0301L160.208 30.012L157.858 30.0939L158.614 27.2259C156.774 28.3321 155.466 28.0248 155.016 27.2054C154.71 26.6318 154.934 26.0991 155.077 25.5255L156.324 20.8138H154.566L152.113 30.0734H150.049L152.502 20.8138H150.682L148.229 30.0734H146.165L147.432 25.2797H145.592L145.919 23.9891H147.759L148.597 20.7933H147.228L147.473 19.81ZM143.957 24.6651C145.163 24.7675 145.817 25.8533 145.388 27.1644L145.265 27.5127C144.836 28.8852 143.385 30.0324 142.035 30.0324H137.763L138.09 28.7828H141.075C141.892 28.7828 142.73 28.0658 142.935 27.1644L142.976 26.9391C143.18 26.0582 142.669 25.3207 141.851 25.3207H139.46L139.623 24.6446L143.957 24.6651ZM143.957 24.6651H143.937C143.896 24.6651 143.855 24.6651 143.834 24.6651C143.875 24.6651 143.916 24.6651 143.937 24.6651H143.957ZM143.998 24.6651C145.204 24.5217 146.267 23.5179 146.39 22.3092L146.43 21.9815C146.574 20.6704 145.592 19.6051 144.264 19.6051H140.461L140.155 20.8342H142.771C143.589 20.8342 144.12 21.5103 143.957 22.3297L143.916 22.5346C143.753 23.354 142.955 24.0301 142.138 24.0301H139.787L139.644 24.6446L143.998 24.6651ZM126.99 23.3335C127.419 23.436 127.685 23.8047 127.583 24.153L126.704 27.1849C126.602 27.5332 126.172 27.7175 125.743 27.6151C125.314 27.5127 125.048 27.1439 125.15 26.7957L126.029 23.7637C126.131 23.4155 126.561 23.2106 126.99 23.3335ZM123.658 17.2287H125.6L125.252 18.9905H123.31L123.658 17.2287ZM118.711 26.8366C118.384 27.3078 117.914 27.6356 117.484 27.6356H117.382C116.748 27.6356 116.421 26.9595 116.646 26.1401L117.035 24.7471L118.711 26.8776V26.8366ZM118.568 23.1901H118.67C119.304 23.1901 119.631 23.8662 119.426 24.6856L119.12 25.8123L117.423 23.8662C117.75 23.4564 118.179 23.1901 118.568 23.1901ZM115.481 19.81H118.997L117.28 17.536L118.731 16.3478L120.755 19.81H121.287L119.753 15.6718L121.675 14.7909L122.779 19.8304H135.167L134.942 20.8138H130.608L130.118 22.8214C132.06 21.5513 134.206 21.879 134.002 24.2144C133.92 25.0953 133.613 26.2016 133.245 27.0005C132.939 27.6766 132.53 28.1682 132.019 28.496C131.201 29.0081 130.547 28.8647 129.729 28.7009C129.463 28.6599 129.443 28.7009 129.545 28.4345L129.668 28.0863C129.709 27.9429 129.709 27.9634 129.852 27.9634C130.056 27.9634 130.261 27.9429 130.445 27.8609C130.751 27.7175 130.976 27.1644 131.14 26.5498C131.303 25.9557 131.855 24.0301 131.528 23.4564C131.385 23.2106 130.956 23.1696 130.588 23.395C130.261 23.5999 130.015 23.8662 129.831 24.1325L128.38 30.1144H126.295L126.826 27.9429C126.275 28.537 125.6 28.9057 124.844 28.9057H124.619C123.351 28.9057 122.534 27.8609 122.82 26.5908L123.331 24.3373C123.617 23.0672 124.905 22.0224 126.172 22.0224H126.397C127.235 22.0224 127.726 22.4322 127.992 23.0877L128.605 20.7933H122.636L120.265 30.1144H118.139L118.69 27.9429C118.118 28.537 117.3 28.9057 116.483 28.9057H116.258C114.929 28.9057 114.071 27.8609 114.377 26.5908L114.909 24.3373C115.215 23.0672 116.544 22.0224 117.873 22.0224H118.098C118.956 22.0224 119.631 22.4526 119.897 23.1082L120.489 20.7933H115.236L115.481 19.81Z" fill="white"/>
<path fill-rule="evenodd" clip-rule="evenodd" d="M92.2793 19.011C92.0544 20.2607 92.0544 20.2607 91.8909 21.0596C91.4821 22.1863 90.9506 23.0877 90.276 24.0711C90.2351 24.0915 90.2146 24.112 90.1738 24.1325C88.2931 26.2835 86.0445 27.6151 83.3461 28.5575C82.8146 28.6804 82.8146 28.6804 82.7533 28.7214V28.8443C82.9372 29.0287 83.2848 28.9877 83.5096 28.9877C83.714 29.0491 83.7141 29.0491 84.0411 29.0696C85.0223 29.3769 85.9627 29.7457 86.8621 30.2783C86.9235 30.3602 87.3527 30.6675 88.0478 31.2821C88.2522 31.5279 88.4566 31.7738 88.661 32.0196C89.0903 32.6342 89.397 33.3512 89.6627 34.0682C89.7445 34.4369 89.8262 34.8057 89.908 35.1744C89.9489 35.5842 89.9489 35.5842 89.9489 36.6494C89.8671 37.1616 89.7649 37.6737 89.6832 38.1859C89.5401 38.4932 89.4992 38.7185 89.2539 39.3331C88.7224 40.3984 88.1295 41.3817 87.3527 42.2831C86.4124 43.2664 85.3903 44.1268 84.3069 44.9462C84.1229 45.0282 83.8367 45.1306 83.714 45.2945C82.0378 46.2369 80.382 46.8719 78.5626 47.507C77.4383 47.7323 76.3344 47.9577 75.1897 48.1011C73.1046 48.224 73.1046 48.224 72.5118 48.2855C70.672 48.3469 63.5786 48.6952 63.4559 48.6747C63.3537 48.5723 63.3741 48.3059 63.4559 48.2035C65.357 47.6504 67.299 47.0153 69.2206 46.5441C69.3841 46.4827 72.614 45.5403 72.941 45.4174C74.3924 45.1101 75.8234 44.557 77.2543 44.1678C77.5814 44.0449 79.2985 43.5737 80.893 43.1025C82.3035 42.7747 83.7958 42.324 85.1654 41.8529C85.2268 41.7709 85.2268 41.689 85.2268 41.5865C85.1859 41.5661 85.145 41.5251 85.1246 41.5046C85.0019 41.5046 83.1621 41.9758 74.5764 44.0653C74.5355 44.0858 74.4946 44.1063 74.4742 44.1268C72.9002 44.4341 71.3261 44.8848 69.7521 45.2535C69.6294 45.2945 69.5068 45.3355 69.4046 45.3764C63.4559 46.79 63.4559 46.79 63.3128 46.8514H63.1493C63.0266 46.6875 62.9448 46.6671 62.9857 46.4417C63.4355 46.1549 63.4355 46.1549 64.5393 45.5198C64.8255 45.3969 67.5443 43.84 67.8101 43.7171C69.9769 42.4265 72.2256 41.2178 74.3924 39.9477C76.2118 38.9439 78.0516 37.8991 79.8709 36.8953C79.9323 36.8543 79.9936 36.8133 80.0549 36.7519C81.445 36.0348 82.7942 35.2359 84.1638 34.4779C84.7975 34.2116 85.4721 33.8019 86.0445 33.4126C86.1467 33.2692 86.0649 33.0849 85.9014 33.0644C84.5726 33.7404 83.2643 34.4369 81.956 35.113C81.7516 35.1744 81.7516 35.1744 81.5472 35.3178C77.7858 37.2435 77.7858 37.2435 77.4792 37.3664C77.0499 37.6328 75.9256 38.1859 75.8234 38.2678C74.188 39.0873 72.5526 39.9477 70.9377 40.8286C70.8764 40.8491 70.8355 40.849 70.7946 40.8695C69.9156 41.4636 68.8526 41.8529 67.9532 42.406C66.3791 43.1844 64.7846 44.0039 63.231 44.8233C63.0471 44.8643 61.8614 45.7042 61.9841 44.8848C62.536 44.3726 63.0879 43.84 63.6399 43.3278C63.8034 43.1435 64.2327 42.7542 64.294 42.7338C64.8869 42.0782 65.5614 41.3202 66.2974 40.8286C66.3382 40.7671 66.3996 40.7057 66.4405 40.6237C67.8714 39.2921 69.3228 37.94 70.6924 36.5265C74.8013 32.5932 78.9306 28.6599 83.0599 24.7881C83.1826 24.6242 83.3052 24.4603 83.4892 24.3579C86.0036 21.9405 86.1671 21.7561 89.1517 18.9086C89.3561 18.7652 89.3561 18.7652 89.4174 18.6423C89.4174 18.1506 89.1312 18.376 88.8655 18.5808C88.1295 19.3183 87.3323 19.9739 86.5759 20.6909C86.2898 21.1006 85.7787 21.3874 85.4516 21.7766C84.7362 22.4322 83.898 23.3131 83.0803 23.8867C82.4875 24.4808 81.8129 25.0953 81.1588 25.6075C78.8079 27.8814 76.2118 29.93 73.8814 32.2245C72.7366 33.1258 71.735 34.2935 70.5698 35.1744C70.2631 35.5227 70.2631 35.5227 68.178 37.4484C68.0963 37.5098 68.0349 37.5508 67.9532 37.5918C65.6228 39.7428 63.2515 41.8529 60.8802 43.9629C60.6144 43.9629 60.5531 43.9015 60.5736 43.6351C63.415 39.497 66.2565 35.3383 69.057 31.1797C70.2018 29.4589 71.3261 27.6971 72.5322 26.0172C73.3908 24.7471 73.4521 24.6242 73.7587 24.2145C75.946 20.9572 78.2356 17.6794 80.382 14.3812C80.6477 14.1149 80.566 13.951 80.2184 13.992C78.3991 16.5527 76.5184 19.093 74.7195 21.6742C74.4129 22.0634 73.8405 22.9238 67.7487 31.4665C67.6057 31.6918 65.4183 34.6828 65.2753 34.8672C63.3128 37.6123 61.3504 40.3984 59.347 43.1025C59.2448 43.1844 59.1426 43.2664 58.9995 43.1845V42.9386C60.4305 39.2102 61.9432 35.4612 63.4968 31.7943C65.7659 26.0787 68.0349 20.3221 70.3449 14.6065C70.3449 14.4836 70.3449 14.4836 70.2631 14.3812C70.1814 14.3812 70.0996 14.4017 70.0383 14.4631C68.2802 18.4169 66.4609 22.3707 64.6824 26.3245C64.6007 26.4269 62.7404 30.5856 62.2089 31.6509C61.9841 32.204 61.8001 32.5522 61.5548 33.1258C60.0421 36.3217 58.5907 39.5789 57.1393 42.8157C56.9553 42.8976 56.7918 42.9181 56.6078 42.8362C56.6282 42.6108 56.6282 42.6108 57.3437 39.9682C57.405 39.8248 57.6095 39.0258 57.6708 38.8619C57.7321 38.5751 57.7934 38.4317 58.4885 35.6866C58.8564 34.314 59.2244 32.9415 59.6128 31.5894C59.6741 31.3026 63.1493 18.7037 63.1902 18.5194C63.3128 18.1096 63.415 17.7204 63.5377 17.3107C63.9874 15.5489 64.4576 13.91 64.8051 12.4965C64.846 12.3941 64.8869 12.3736 64.9686 12.3121C71.183 12.3121 77.4179 12.3326 83.6527 12.2916C85.5538 12.3941 87.4958 12.7218 89.2539 13.5413C89.4378 13.6847 89.4378 13.6847 89.8876 13.9305C90.276 14.2173 90.6848 14.5451 91.0528 14.9138C91.2572 15.2006 91.4412 15.4874 91.6456 15.7742C91.7682 16.061 91.8705 16.3683 91.9931 16.6551C92.0749 17.0853 92.1771 17.5155 92.2589 17.9253C92.2589 18.253 92.2589 18.6423 92.2793 19.011ZM102.235 20.6499C102.112 21.5308 101.969 22.3502 101.724 23.2106C101.213 24.2759 101.213 24.2759 100.885 24.87C100.293 25.7714 99.5363 26.5294 98.739 27.2464C97.9622 27.8405 97.9622 27.8405 97.1241 28.4346C96.1224 29.0287 95.0185 29.4998 93.9556 29.9915C93.5467 30.1144 93.0561 30.2168 92.6881 30.4422C92.6881 30.5446 92.6881 30.5446 92.7086 30.5856C94.0782 30.729 95.2843 31.2002 96.4291 31.9581C96.981 32.4293 97.5125 32.9005 97.9827 33.4741C98.5346 34.2731 98.9639 35.0515 99.291 35.9529C99.3727 36.3217 99.4545 36.6699 99.5363 37.0387C99.5976 37.6123 99.5976 38.1859 99.5976 38.78C99.4136 40.4598 98.8003 41.9553 97.9009 43.3893C97.3285 44.1883 97.3285 44.1883 96.7561 44.9258C95.7749 45.9501 94.5688 47.1177 93.2605 47.7118C92.2997 48.4289 91.0119 48.8795 89.908 49.3302C89.213 49.5351 88.4975 49.7604 87.8025 49.9858C86.2284 50.2726 86.2284 50.2726 86.0649 50.334C84.8588 50.457 84.8588 50.457 84.5317 50.5184C77.5405 50.8052 70.4676 50.6823 63.4763 50.6823C63.3946 50.5389 63.3537 50.334 63.5377 50.2521C66.8902 50.1087 70.2631 49.9448 73.6156 49.8424C74.2698 49.8424 74.9853 49.8629 75.619 49.7604C77.8676 49.6785 80.0549 49.5761 82.2831 49.2278C82.4262 49.1664 83.019 49.0434 83.898 48.8181C88.2522 47.4046 92.218 44.639 94.0578 40.2959C94.1804 39.9067 94.1804 39.9067 94.3031 39.6814C94.4053 39.1897 94.5075 38.698 94.6097 38.2064C94.6301 36.9977 94.6301 36.9977 94.6097 36.5265C94.4462 35.3588 94.0169 34.1911 93.3423 33.2283C93.0357 32.9005 92.7495 32.5522 92.4428 32.2245C91.0119 31.0977 89.6014 30.3398 87.7616 30.1964C87.7616 30.0529 87.8025 30.0325 87.9251 29.971C88.3749 29.8481 88.3749 29.8481 89.0086 29.6227C91.9113 28.3526 94.5075 26.6523 96.1429 23.8662C96.3064 23.4974 96.4699 23.1082 96.6335 22.719C96.9197 21.7766 97.0832 20.8343 97.165 19.8509C97.1241 19.4207 97.1036 18.9905 97.0832 18.5603C97.0014 18.294 96.9197 18.0072 96.8379 17.7204C96.4904 16.8805 96.1224 16.3683 95.4887 15.7333C94.487 14.9343 93.3627 14.3402 92.0953 14.0534C92.0953 14.0329 92.0953 13.992 92.1158 13.9715C92.7699 13.8486 93.5672 13.9715 94.2213 14.0124C94.5279 14.0739 94.5279 14.0739 95.6318 14.1968C95.9998 14.2788 96.3677 14.3607 96.7561 14.4427C97.9418 14.7704 99.1274 15.1801 100.129 15.8972C100.415 16.1635 100.722 16.4298 101.008 16.6961C101.253 17.0853 101.499 17.4541 101.744 17.8228C101.867 18.1916 101.989 18.5398 102.112 18.9086C102.153 19.4003 102.214 20.0148 102.235 20.6499Z" fill="white"/>
</svg>
