<svg width="21" height="22" viewBox="0 0 21 22" fill="none" xmlns="http://www.w3.org/2000/svg">
<path d="M7 3.125H6.825C5.35486 3.125 4.61979 3.125 4.05827 3.41111C3.56435 3.66278 3.16278 4.06435 2.91111 4.55827C2.625 5.11979 2.625 5.85486 2.625 7.325V7.5M7 18.875H6.825C5.35486 18.875 4.61979 18.875 4.05827 18.5889C3.56435 18.3372 3.16278 17.9357 2.91111 17.4417C2.625 16.8802 2.625 16.1451 2.625 14.675V14.5M18.375 7.5V7.325C18.375 5.85486 18.375 5.11979 18.0889 4.55828C17.8372 4.06435 17.4357 3.66278 16.9417 3.41111C16.3802 3.125 15.6451 3.125 14.175 3.125H14M18.375 14.5V14.675C18.375 16.1451 18.375 16.8802 18.0889 17.4417C17.8372 17.9357 17.4357 18.3372 16.9417 18.5889C16.3802 18.875 15.6451 18.875 14.175 18.875H14M6.5625 7.5V8.8125M14.4375 7.5V8.8125M9.625 11.5251C10.325 11.5251 10.9375 10.9126 10.9375 10.2126V7.5M13.3002 13.8C11.7252 15.375 9.18767 15.375 7.61267 13.8" stroke="white" stroke-width="2" stroke-linecap="round" stroke-linejoin="round"/>
</svg>
