<svg width="21" height="22" viewBox="0 0 21 22" fill="none" xmlns="http://www.w3.org/2000/svg">
<path d="M3.73808 18.6369L9.51005 12.8649C9.85657 12.5184 10.0298 12.3452 10.2296 12.2803C10.4053 12.2232 10.5947 12.2232 10.7704 12.2803C10.9702 12.3452 11.1434 12.5184 11.4899 12.8649L17.2234 18.5984M12.25 13.625L14.76 11.1149C15.1066 10.7684 15.2798 10.5952 15.4796 10.5303C15.6553 10.4732 15.8446 10.4732 16.0204 10.5303C16.2202 10.5952 16.3934 10.7684 16.7399 11.1149L19.25 13.625M8.75 8.375C8.75 9.3415 7.9665 10.125 7 10.125C6.0335 10.125 5.25 9.3415 5.25 8.375C5.25 7.4085 6.0335 6.625 7 6.625C7.9665 6.625 8.75 7.4085 8.75 8.375ZM5.95 18.875H15.05C16.5201 18.875 17.2552 18.875 17.8167 18.5889C18.3106 18.3372 18.7122 17.9356 18.9639 17.4417C19.25 16.8802 19.25 16.1451 19.25 14.675V7.325C19.25 5.85486 19.25 5.11979 18.9639 4.55827C18.7122 4.06435 18.3106 3.66278 17.8167 3.41111C17.2552 3.125 16.5201 3.125 15.05 3.125H5.95C4.47986 3.125 3.74479 3.125 3.18327 3.41111C2.68935 3.66278 2.28778 4.06435 2.03611 4.55827C1.75 5.11979 1.75 5.85486 1.75 7.325V14.675C1.75 16.1451 1.75 16.8802 2.03611 17.4417C2.28778 17.9356 2.68935 18.3372 3.18327 18.5889C3.74479 18.875 4.47986 18.875 5.95 18.875Z" stroke="white" stroke-width="2" stroke-linecap="round" stroke-linejoin="round"/>
</svg>
