<svg width="30" height="30" viewBox="0 0 30 30" fill="none" xmlns="http://www.w3.org/2000/svg">
<path d="M16.2621 23.7632H13.7372V6.23785H16.2621V23.7632ZM26.2369 17.5004H23.7496V12.5002H26.2369V17.5004ZM6.24943 17.3882H3.76211V12.3881H6.24943V17.3882ZM21.2494 20.0132H18.7621V9.98829H21.2494V20.0132ZM8.75014 20.0132V9.98829H11.2375V20.0132H8.75014ZM0 5.625V8.75014H2.49986V5.625C2.49986 3.75 3.75 2.49986 5.625 2.49986H8.75014V0H5.625C1.875 0 0 1.875 0 5.625ZM24.375 0H21.2499V2.49986H24.375C26.25 2.49986 27.5001 3.75 27.5001 5.625V8.75014H30V5.625C30 1.875 28.125 0 24.375 0ZM0 24.375C0 28.125 1.875 30 5.625 30H8.75014V27.5001H5.625C3.75 27.5001 2.49986 26.25 2.49986 24.375V21.2499H0V24.375ZM24.375 30C28.125 30 30 28.125 30 24.375V21.2499H27.5001V24.375C27.5001 26.25 26.25 27.5001 24.375 27.5001H21.2499V30H24.375Z" fill="white"/>
</svg>
